<?xml version="1.0" encoding="UTF-8"?>
<svg version="1.1" xmlns="http://www.w3.org/2000/svg" width="512" height="512">
<path d="M0 0 C0.9590625 0.55429688 1.918125 1.10859375 2.90625 1.6796875 C3.52161621 2.02563965 4.13698242 2.3715918 4.77099609 2.72802734 C12.06059336 7.1667011 17.7941612 13.18221434 23.73632812 19.22851562 C25.52743003 21.05080102 27.32900071 22.86217802 29.1328125 24.671875 C38.48797321 34.0923366 38.48797321 34.0923366 42.7421875 39.09375 C45.42893031 42.24065545 48.34371135 44.85545565 51.49169922 47.53173828 C56.56421378 52.04417337 61.29710037 56.92388139 66.08813477 61.73120117 C67.96454475 63.61297024 69.84623969 65.48933488 71.72851562 67.36523438 C81.74815477 77.38122126 81.74815477 77.38122126 85.65234375 81.99609375 C88.8339948 85.7388059 92.42105813 88.89408917 96.10009766 92.14013672 C101.02743513 96.59934712 105.69513403 101.32068009 110.38452148 106.02758789 C112.09832233 107.7467742 113.81744082 109.46051333 115.53710938 111.17382812 C124.6727213 120.30581121 124.6727213 120.30581121 128.70703125 125.05078125 C131.414881 128.22428606 134.34916356 130.86477349 137.52294922 133.56298828 C142.4379138 137.92815351 147.0223365 142.64900557 151.66088867 147.30395508 C153.46487085 149.11329683 155.27413665 150.91723069 157.08398438 152.72070312 C166.71692182 162.34999142 166.71692182 162.34999142 170.62109375 166.96484375 C173.81491136 170.71701421 177.40972627 173.88409098 181.10009766 177.14013672 C186.02743513 181.59934712 190.69513403 186.32068009 195.38452148 191.02758789 C197.09832233 192.7467742 198.81744082 194.46051333 200.53710938 196.17382812 C209.67567361 205.30876129 209.67567361 205.30876129 213.58203125 209.92578125 C216.79101638 213.68979182 220.39557346 216.87160383 224.10009766 220.14013672 C229.02743513 224.59934712 233.69513403 229.32068009 238.38452148 234.02758789 C240.09832233 235.7467742 241.81744082 237.46051333 243.53710938 239.17382812 C252.6727213 248.30581121 252.6727213 248.30581121 256.70703125 253.05078125 C259.414881 256.22428606 262.34916356 258.86477349 265.52294922 261.56298828 C270.4379138 265.92815351 275.0223365 270.64900557 279.66088867 275.30395508 C281.46487085 277.11329683 283.27413665 278.91723069 285.08398438 280.72070312 C290.41527362 286.04956151 295.650117 291.38428804 300.54272461 297.12475586 C302.34879984 299.18436072 304.32406259 300.96553846 306.40625 302.7421875 C310.93527718 306.75718399 315.32893987 310.8870189 319.65625 315.1171875 C320.28208984 315.71345947 320.90792969 316.30973145 321.55273438 316.92407227 C329.51932702 324.78801354 333.91139663 334.38297069 338.28125 344.5546875 C338.75892822 345.66054199 339.23660645 346.76639648 339.72875977 347.90576172 C340.68912135 350.13913826 341.64534561 352.37429899 342.59716797 354.61132812 C343.70570704 357.20963454 344.83553941 359.79696235 345.97265625 362.3828125 C356.10474671 385.98686939 362.79457916 411.46476732 369.23242188 436.29467773 C371.20004561 443.73097326 373.83093013 450.63580395 376.90625 457.6796875 C388.54219297 485.90906399 388.54219297 485.90906399 384.90625 496.6796875 C382.91159503 499.76818552 381.42401619 501.17674145 377.9140625 502.33984375 C366.06520124 504.39444427 353.41486547 498.6937542 342.6875 494.23828125 C329.63597688 488.82136316 316.17653161 484.99024564 302.57983398 481.21875 C293.51933139 478.70454138 284.47939595 476.13302029 275.46884155 473.44473267 C273.58935976 472.88450849 271.70839734 472.32925913 269.82739258 471.77416992 C263.02364431 469.73422953 256.44710969 467.44414322 249.90625 464.6796875 C248.50209839 464.09876343 248.50209839 464.09876343 247.06958008 463.50610352 C244.01132283 462.23957771 240.958339 460.9610003 237.90625 459.6796875 C236.86678223 459.2455957 235.82731445 458.81150391 234.75634766 458.36425781 C231.57041094 457.02637022 228.39409605 455.66749696 225.21875 454.3046875 C224.15591797 453.86125 223.09308594 453.4178125 221.99804688 452.9609375 C210.465759 447.98092423 202.52725141 440.61465317 193.78125 431.7421875 C192.92660156 430.88689453 192.07195312 430.03160156 191.19140625 429.15039062 C187.46945873 425.40271536 183.82669217 421.64593521 180.4140625 417.61328125 C177.1337172 413.79596193 173.48213659 410.54530655 169.71240234 407.21923828 C164.78506487 402.76002788 160.11736597 398.03869491 155.42797852 393.33178711 C153.71417767 391.6126008 151.99505918 389.89886167 150.27539062 388.18554688 C141.1397787 379.05356379 141.1397787 379.05356379 137.10546875 374.30859375 C134.397619 371.13508894 131.46333644 368.49460151 128.28955078 365.79638672 C123.3745862 361.43122149 118.7901635 356.71036943 114.15161133 352.05541992 C112.34762915 350.24607817 110.53836335 348.44214431 108.72851562 346.63867188 C99.09557818 337.00938358 99.09557818 337.00938358 95.19140625 332.39453125 C91.99758864 328.64236079 88.40277373 325.47528402 84.71240234 322.21923828 C79.78506487 317.76002788 75.11736597 313.03869491 70.42797852 308.33178711 C68.71417767 306.6126008 66.99505918 304.89886167 65.27539062 303.18554688 C56.13682639 294.05061371 56.13682639 294.05061371 52.23046875 289.43359375 C49.02148362 285.66958318 45.41692654 282.48777117 41.71240234 279.21923828 C36.78506487 274.76002788 32.11736597 270.03869491 27.42797852 265.33178711 C25.71417767 263.6126008 23.99505918 261.89886167 22.27539062 260.18554688 C13.1397787 251.05356379 13.1397787 251.05356379 9.10546875 246.30859375 C6.397619 243.13508894 3.46333644 240.49460151 0.28955078 237.79638672 C-4.6254138 233.43122149 -9.2098365 228.71036943 -13.84838867 224.05541992 C-15.65237085 222.24607817 -17.46163665 220.44214431 -19.27148438 218.63867188 C-28.90442182 209.00938358 -28.90442182 209.00938358 -32.80859375 204.39453125 C-36.00241136 200.64236079 -39.59722627 197.47528402 -43.28759766 194.21923828 C-48.21493513 189.76002788 -52.88263403 185.03869491 -57.57202148 180.33178711 C-59.28582233 178.6126008 -61.00494082 176.89886167 -62.72460938 175.18554688 C-71.86317361 166.05061371 -71.86317361 166.05061371 -75.76953125 161.43359375 C-79.00806062 157.63592944 -82.64067335 154.40422607 -86.37695312 151.10351562 C-90.81222744 147.14652395 -95.10019569 143.04693884 -99.34521484 138.88818359 C-100.3443629 137.91573158 -101.35060298 136.95051361 -102.36376953 135.99267578 C-111.75924881 127.09982285 -119.09808598 116.32190748 -120.46484375 103.0859375 C-120.74502848 86.60448253 -115.57349627 75.50217075 -104.19824219 63.6171875 C-101.54152186 60.88750968 -98.84738574 58.19680436 -96.13867188 55.51879883 C-94.4589737 53.8575184 -92.78757771 52.1882124 -91.1171875 50.51757812 C-90.03432676 49.43962921 -88.95100944 48.36213872 -87.8671875 47.28515625 C-87.37640717 46.79548874 -86.88562683 46.30582123 -86.37997437 45.80131531 C-83.98203703 43.43563665 -81.53758785 41.1847349 -78.93188477 39.05371094 C-76.64884334 37.14400816 -74.79446364 35.36612249 -72.91015625 33.08984375 C-68.63167284 28.08869903 -64.11303628 23.33331795 -59.50805664 18.6340332 C-58.52869671 17.62812095 -57.55656131 16.61512066 -56.59204102 15.5949707 C-41.90833907 0.08120082 -20.7804478 -9.57653167 0 0 Z " fill="#FECB4D" transform="translate(123.09375,6.3203125)"/>
<path d="M0 0 C0.9590625 0.55429688 1.918125 1.10859375 2.90625 1.6796875 C3.52161621 2.02563965 4.13698242 2.3715918 4.77099609 2.72802734 C12.06059336 7.1667011 17.7941612 13.18221434 23.73632812 19.22851562 C25.52743003 21.05080102 27.32900071 22.86217802 29.1328125 24.671875 C38.48797321 34.0923366 38.48797321 34.0923366 42.7421875 39.09375 C45.42893031 42.24065545 48.34371135 44.85545565 51.49169922 47.53173828 C56.56421378 52.04417337 61.29710037 56.92388139 66.08813477 61.73120117 C67.96454475 63.61297024 69.84623969 65.48933488 71.72851562 67.36523438 C77.16723498 72.80161229 82.52241483 78.23255324 87.50756836 84.09399414 C89.55086614 86.41049249 91.81886035 88.41571026 94.15625 90.4296875 C97.15225887 93.01630385 99.58222003 95.48477193 101.90625 98.6796875 C101.45713194 99.05793513 101.00801388 99.43618277 100.54528618 99.82589245 C94.35037953 105.13599229 88.59496557 110.85636535 82.84033203 116.63208008 C81.74902997 117.72366476 80.65750657 118.81502821 79.56578064 119.90618896 C76.62388876 122.84779573 73.68507523 125.79246017 70.74683237 128.73771119 C67.66529197 131.82553598 64.58088762 134.91049739 61.49679565 137.99577332 C55.66442414 143.83124437 49.83460443 149.66925778 44.00571334 155.50820512 C37.3737959 162.15131538 30.73902611 168.79157376 24.1040175 175.4315964 C11.02093239 188.52468646 -2.05892113 201.62099997 -15.1364727 214.71961689 C-16.45508951 216.04011555 -17.77419193 217.36012943 -19.09375 218.6796875 C-28.66037757 209.28629866 -28.66037757 209.28629866 -32.59375 204.6171875 C-35.05046258 201.74481132 -37.64347827 199.23663039 -40.48828125 196.75 C-46.39272047 191.48168035 -51.98902616 185.93564144 -57.57202148 180.33178711 C-59.28582233 178.6126008 -61.00494082 176.89886167 -62.72460938 175.18554688 C-71.86317361 166.05061371 -71.86317361 166.05061371 -75.76953125 161.43359375 C-79.00806062 157.63592944 -82.64067335 154.40422607 -86.37695312 151.10351562 C-90.81222744 147.14652395 -95.10019569 143.04693884 -99.34521484 138.88818359 C-100.3443629 137.91573158 -101.35060298 136.95051361 -102.36376953 135.99267578 C-111.75924881 127.09982285 -119.09808598 116.32190748 -120.46484375 103.0859375 C-120.74502848 86.60448253 -115.57349627 75.50217075 -104.19824219 63.6171875 C-101.54152186 60.88750968 -98.84738574 58.19680436 -96.13867188 55.51879883 C-94.4589737 53.8575184 -92.78757771 52.1882124 -91.1171875 50.51757812 C-90.03432676 49.43962921 -88.95100944 48.36213872 -87.8671875 47.28515625 C-87.37640717 46.79548874 -86.88562683 46.30582123 -86.37997437 45.80131531 C-83.98203703 43.43563665 -81.53758785 41.1847349 -78.93188477 39.05371094 C-76.64884334 37.14400816 -74.79446364 35.36612249 -72.91015625 33.08984375 C-68.63167284 28.08869903 -64.11303628 23.33331795 -59.50805664 18.6340332 C-58.52869671 17.62812095 -57.55656131 16.61512066 -56.59204102 15.5949707 C-41.90833907 0.08120082 -20.7804478 -9.57653167 0 0 Z " fill="#9AAAB5" transform="translate(123.09375,6.3203125)"/>
<path d="M0 0 C8.5433418 3.93307077 11.85644202 15.68484524 15.375 23.875 C15.85267822 24.98085449 16.33035645 26.08670898 16.82250977 27.22607422 C17.78287135 29.45945076 18.73909561 31.69461149 19.69091797 33.93164062 C20.79945704 36.52994704 21.92928941 39.11727485 23.06640625 41.703125 C33.19849671 65.30718189 39.88832916 90.78507982 46.32617188 115.61499023 C48.29379561 123.05128576 50.92468013 129.95611645 54 137 C65.63594297 165.22937649 65.63594297 165.22937649 62 176 C60.00534503 179.08849802 58.51776619 180.49705395 55.0078125 181.66015625 C43.15895124 183.71475677 30.50861547 178.0140667 19.78125 173.55859375 C6.72972688 168.14167566 -6.72971839 164.31055814 -20.32641602 160.5390625 C-29.38691861 158.02485388 -38.42685405 155.45333279 -47.43740845 152.76504517 C-49.31689024 152.20482099 -51.19785266 151.64957163 -53.07885742 151.09448242 C-59.88260569 149.05454203 -66.45914031 146.76445572 -73 144 C-73.93610107 143.61271729 -74.87220215 143.22543457 -75.83666992 142.82641602 C-78.89492717 141.55989021 -81.947911 140.2813128 -85 139 C-86.03946777 138.5659082 -87.07893555 138.13181641 -88.14990234 137.68457031 C-91.33583906 136.34668272 -94.51215395 134.98780946 -97.6875 133.625 C-98.75033203 133.1815625 -99.81316406 132.738125 -100.90820312 132.28125 C-107.74855851 129.32736427 -113.37021559 125.88791646 -119 121 C-117.3837447 116.91336579 -114.44804688 114.21049134 -111.36328125 111.203125 C-110.80561569 110.65066101 -110.24795013 110.09819702 -109.67338562 109.5289917 C-107.89112195 107.76449486 -106.10233665 106.00681205 -104.3125 104.25 C-101.97184641 101.94614411 -99.63440794 99.63909855 -97.30078125 97.328125 C-96.73848312 96.77132553 -96.176185 96.21452606 -95.59684753 95.64085388 C-92.08113216 92.13756072 -88.73966605 88.54007425 -85.52368164 84.75732422 C-82.85000286 81.67366137 -79.95689933 78.81236457 -77.0625 75.9375 C-76.49337891 75.36451172 -75.92425781 74.79152344 -75.33789062 74.20117188 C-72.53701084 71.40657913 -69.69869277 68.72197807 -66.67163086 66.17382812 C-60.01567254 60.37101575 -53.88425965 54.00686117 -47.65625 47.75390625 C-46.27784813 46.3736363 -44.89922309 44.9935892 -43.52038574 43.61375427 C-39.91464527 40.0042193 -36.31191967 36.39169001 -32.70983887 32.77850342 C-29.02454066 29.08292473 -25.33636419 25.39022095 -21.6484375 21.69726562 C-14.42949074 14.46763572 -7.21372951 7.23483544 0 0 Z " fill="#D89D81" transform="translate(446,327)"/>
<path d="M0 0 C0.86238281 0.47953125 1.72476563 0.9590625 2.61328125 1.453125 C3.34160156 1.82953125 4.06992188 2.2059375 4.8203125 2.59375 C13.25756115 7.54026312 19.8841689 15.46443265 26.61328125 22.453125 C25.05660664 26.17740957 22.77305209 28.53994896 19.93099976 31.37591553 C19.45151528 31.85710885 18.9720308 32.33830218 18.4780165 32.83407712 C16.8720566 34.44332813 15.25905886 36.04533206 13.64599609 37.64746094 C12.49257681 38.80031602 11.33959785 39.95361178 10.18702698 41.10731506 C7.05741053 44.2375057 3.9216627 47.36148842 0.78478956 50.48440456 C-2.49261554 53.74931339 -5.76436372 57.01988086 -9.03671265 60.28985596 C-15.23398289 66.4809082 -21.43633409 72.66684421 -27.64052045 78.85096478 C-34.70362307 85.89171839 -41.76105248 92.93814688 -48.81800771 99.98506117 C-63.33460133 114.48074553 -77.85831556 128.96927752 -92.38671875 143.453125 C-103.41570083 138.14906508 -113.02985426 126.5683093 -117.44140625 115.3203125 C-117.75335938 114.37414062 -118.0653125 113.42796875 -118.38671875 112.453125 C-118.93392578 111.01839844 -118.93392578 111.01839844 -119.4921875 109.5546875 C-122.64308957 98.62972575 -120.71804393 86.33829043 -115.38671875 76.453125 C-109.92380779 68.63737615 -103.1879526 61.97195289 -96.43164062 55.29223633 C-94.75194245 53.6309559 -93.08054646 51.9616499 -91.41015625 50.29101562 C-90.32729551 49.21306671 -89.24397819 48.13557622 -88.16015625 47.05859375 C-87.66937592 46.56892624 -87.17859558 46.07925873 -86.67294312 45.57475281 C-84.27500578 43.20907415 -81.8305566 40.9581724 -79.22485352 38.82714844 C-76.94181209 36.91744566 -75.08743239 35.13955999 -73.203125 32.86328125 C-68.92464159 27.86213653 -64.40600503 23.10675545 -59.80102539 18.4074707 C-58.82166546 17.40155845 -57.84953006 16.38855816 -56.88500977 15.3684082 C-42.24633037 -0.09779402 -20.63717631 -10.16499618 0 0 Z " fill="#E9596E" transform="translate(123.38671875,6.546875)"/>
<path d="M0 0 C8.16363636 6.9974026 8.16363636 6.9974026 11 10.125 C11.598125 10.76695313 12.19625 11.40890625 12.8125 12.0703125 C14 14 14 14 13.85529041 15.81488323 C12.66239818 18.86251334 10.81070581 20.5735712 8.50285339 22.89155579 C8.03112916 23.36937113 7.55940492 23.84718646 7.07338601 24.33948106 C5.4898542 25.93967042 3.89578932 27.52892799 2.30151367 29.1184082 C1.16440323 30.26285718 0.02791818 31.40792782 -1.10798645 32.55357361 C-4.19590891 35.66373874 -7.2934349 38.76416751 -10.39344239 41.86228204 C-12.97823363 44.44695375 -15.55867268 47.0359493 -18.13922995 49.62484711 C-24.22452147 55.72938109 -30.31796413 61.82569544 -36.41625977 67.91723633 C-42.71493739 74.20926584 -48.99869427 80.51592367 -55.27548772 86.82977802 C-60.66020497 92.24513629 -66.05448442 97.65083802 -71.45649356 103.04894704 C-74.68503154 106.27541244 -77.90963773 109.50558194 -81.12491798 112.74526405 C-84.14671523 115.7892345 -87.18021281 118.82102678 -90.22329521 121.84371376 C-91.34027195 122.95726418 -92.45296408 124.07513081 -93.56108856 125.19749069 C-95.07012971 126.72457769 -96.59361688 128.23557192 -98.12190247 129.74336243 C-98.97234036 130.59451283 -99.82277826 131.44566324 -100.69898701 132.32260609 C-103 134 -103 134 -105.18207836 133.8546629 C-107.44737676 132.78967393 -109.07347411 131.48458659 -110.9375 129.8125 C-111.58589844 129.24144531 -112.23429687 128.67039063 -112.90234375 128.08203125 C-115.4470655 125.5562646 -117.70468171 122.75438194 -120 120 C-80.4 80.4 -40.8 40.8 0 0 Z " fill="#CBD5DC" transform="translate(150,30)"/>
<path d="M0 0 C2.79570164 1.34727261 4.83967803 2.59706233 7.015625 4.8203125 C7.80839844 5.62275391 7.80839844 5.62275391 8.6171875 6.44140625 C9.15601563 6.99699219 9.69484375 7.55257812 10.25 8.125 C10.80429688 8.68832031 11.35859375 9.25164062 11.9296875 9.83203125 C13.29104485 11.21686028 14.64614859 12.60783204 16 14 C10.72150195 20.40245704 4.90922026 26.22539856 -0.96240234 32.07592773 C-2.06693659 33.18017949 -3.17124985 34.28465232 -4.27536011 35.389328 C-7.25614648 38.37039991 -10.23999407 41.34839025 -13.22442198 44.32581592 C-16.34921842 47.44433816 -19.4711612 50.56571459 -22.59341431 53.68678284 C-28.4985925 59.58885967 -34.40631397 65.48838392 -40.31496489 71.38698393 C-47.04489095 78.10571166 -53.77195938 84.82729747 -60.49879527 91.54911888 C-74.32936421 105.3692505 -88.16349826 119.18580834 -102 133 C-103.11674511 132.04957913 -104.23252489 131.09802392 -105.34790039 130.14599609 C-105.9693544 129.61622162 -106.59080841 129.08644714 -107.23109436 128.5406189 C-109.39444368 126.65646139 -111.42699013 124.67078197 -113.4375 122.625 C-114.11683594 121.93664062 -114.79617187 121.24828125 -115.49609375 120.5390625 C-116.24052734 119.77722656 -116.24052734 119.77722656 -117 119 C-115.45167187 115.31005165 -113.21202218 112.96537289 -110.39364624 110.15313721 C-109.92232887 109.68011099 -109.4510115 109.20708477 -108.96541178 108.71972442 C-107.38709002 107.13811205 -105.80173322 105.56374771 -104.21630859 103.98925781 C-103.08259349 102.85610692 -101.94931873 101.72251532 -100.81645203 100.58851624 C-97.74055258 97.51204264 -94.65852279 94.44177726 -91.5753665 91.37257862 C-88.35401551 88.16372462 -85.1383221 84.94921127 -81.92202759 81.73529053 C-75.83100521 75.65048594 -69.73490221 69.57079785 -63.63696349 63.49292541 C-56.69477728 56.57308885 -49.75826482 49.64757683 -42.82222629 42.72157907 C-28.55446098 28.47472256 -14.27957531 14.23501872 0 0 Z " fill="#CAD4DB" transform="translate(178,61)"/>
<path d="M0 0 C9 6.75 9 6.75 12.5 10.375 C13.50546875 11.40753906 13.50546875 11.40753906 14.53125 12.4609375 C15.0159375 12.96882813 15.500625 13.47671875 16 14 C-24.33333333 54.33333333 -64.66666667 94.66666667 -105 135 C-106.5897044 133.46490376 -108.17147496 131.92158956 -109.75 130.375 C-111.07257813 129.08722656 -111.07257813 129.08722656 -112.421875 127.7734375 C-115 125 -115 125 -119 119 C-79.73 79.73 -40.46 40.46 0 0 Z " fill="#CBD5DC" transform="translate(209,90)"/>
<path d="M0 0 C6.8300656 12.60393548 16.34713621 31.30667962 12 46 C10.00534503 49.08849802 8.51776619 50.49705395 5.0078125 51.66015625 C-8.04035035 53.92271647 -22.28115078 46.99585533 -34 42 C-35.66482083 41.32873713 -37.33074442 40.66015757 -39 40 C-40.0137738 30.22271489 -37.43299844 19.78919635 -31.25 12 C-22.60702855 3.29105167 -12.22161451 -0.6917895 0 0 Z " fill="#2A2F33" transform="translate(496,457)"/>
<path d="M0 0 C1.1065941 0.93877926 2.21178799 1.87920916 3.31640625 2.8203125 C3.93201416 3.34383301 4.54762207 3.86735352 5.18188477 4.40673828 C7.57236585 6.5015791 9.78679163 8.71972471 12 11 C11.67 11.66 11.34 12.32 11 13 C10.39671875 12.33871094 9.7934375 11.67742188 9.171875 10.99609375 C8.37265625 10.15175781 7.5734375 9.30742188 6.75 8.4375 C5.56664062 7.16712891 5.56664062 7.16712891 4.359375 5.87109375 C2.25951061 3.77949563 2.25951061 3.77949563 0.15351582 4.10673046 C-2.81573655 5.33836418 -4.53756235 7.15328604 -6.81562805 9.42121887 C-7.28527629 9.884776 -7.75492452 10.34833313 -8.23880452 10.82593745 C-9.81135482 12.38183237 -11.37297208 13.94825445 -12.93481445 15.51489258 C-14.05955934 16.63229881 -15.18492583 17.74907966 -16.31086731 18.86528015 C-19.36731475 21.89948629 -22.41402606 24.94329339 -25.45842385 27.98958421 C-27.99835975 30.52963964 -30.54261938 33.06534254 -33.0867812 35.60116404 C-39.08583967 41.58098056 -45.0766785 47.56894702 -51.06274414 53.56176758 C-57.24571151 59.75138311 -63.44330483 65.92607512 -69.64809638 72.09380609 C-74.97003755 77.38510578 -80.28232086 82.68596731 -85.58701295 87.99455947 C-88.75758782 91.16720686 -91.93186427 94.33592094 -95.1156559 97.49530983 C-98.10709849 100.46457843 -101.08635759 103.44554425 -104.05651665 106.4360981 C-105.15071648 107.53372411 -106.24923237 108.62706624 -107.35224152 109.71583939 C-108.85305986 111.19861033 -110.33776904 112.69581496 -111.81929016 114.1978302 C-112.65569188 115.03351941 -113.4920936 115.86920862 -114.35384083 116.73022175 C-116.23885897 118.82619487 -116.23885897 118.82619487 -115.87677288 121.16634655 C-114.66000301 123.71105833 -112.97395423 125.31051978 -110.9375 127.25 C-109.83728516 128.30960938 -109.83728516 128.30960938 -108.71484375 129.390625 C-108.14894531 129.92171875 -107.58304688 130.4528125 -107 131 C-110 131 -110 131 -112.48046875 128.8125 C-113.37378906 127.884375 -114.26710938 126.95625 -115.1875 126 C-116.08855469 125.071875 -116.98960938 124.14375 -117.91796875 123.1875 C-118.60503906 122.465625 -119.29210937 121.74375 -120 121 C-114.66953574 114.5288572 -108.78625895 108.65180411 -102.85400391 102.74047852 C-101.72976548 101.61652258 -100.60574803 100.49234558 -99.48193359 99.3679657 C-96.44743003 96.33317655 -93.40986463 93.3014692 -90.37171984 90.2703259 C-87.19086937 87.0957488 -84.01287177 83.91831831 -80.83456421 80.74119568 C-74.82313803 74.7328711 -68.80916846 68.72709908 -62.79426992 62.72225088 C-55.94342754 55.88260608 -49.09544214 49.04010385 -42.24768949 42.19736588 C-28.16829211 28.12840637 -14.08532944 14.06302038 0 0 Z " fill="#D1BEC8" transform="translate(150,30)"/>
</svg>
